<?xml version="1.0" encoding="UTF-8" standalone="no"?>
<!DOCTYPE svg PUBLIC "-//W3C//DTD SVG 1.1//EN"
 "http://www.w3.org/Graphics/SVG/1.1/DTD/svg11.dtd">
<!-- Generated by graphviz version 2.43.0 (0)
 -->
<!-- Title: FSM Pages: 1 -->
<svg width="1209pt" height="824pt"
 viewBox="0.00 0.00 1209.16 824.00" xmlns="http://www.w3.org/2000/svg" xmlns:xlink="http://www.w3.org/1999/xlink">
<g id="graph0" class="graph" transform="scale(1 1) rotate(0) translate(4 820)">
<title>FSM</title>
<polygon fill="white" stroke="transparent" points="-4,4 -4,-820 1205.16,-820 1205.16,4 -4,4"/>
<text text-anchor="middle" x="600.58" y="-800.8" font-family="Times,serif" font-size="14.00">ins_mem</text>
<g id="clust1" class="cluster">
<title>cluster_1</title>
<polygon fill="none" stroke="gray" stroke-dasharray="5,2" points="8,-8 8,-785 1193.16,-785 1193.16,-8 8,-8"/>
<text text-anchor="middle" x="600.58" y="-15.4" font-family="Times,serif" font-size="12.00">current_state</text>
</g>
<!-- default -->
<g id="node1" class="node">
<title>default</title>
<path fill="none" stroke="black" d="M56.04,-400.02C56.04,-400.02 27.46,-389.98 27.46,-389.98 21.8,-387.99 21.8,-384.01 27.46,-382.02 27.46,-382.02 56.04,-371.98 56.04,-371.98 61.7,-369.99 73.02,-369.99 78.69,-371.98 78.69,-371.98 107.27,-382.02 107.27,-382.02 112.93,-384.01 112.93,-387.99 107.27,-389.98 107.27,-389.98 78.69,-400.02 78.69,-400.02 73.02,-402.01 61.7,-402.01 56.04,-400.02"/>
<text text-anchor="middle" x="67.36" y="-382.9" font-family="Times,serif" font-size="12.00">default</text>
</g>
<!-- S_IDLE -->
<g id="node3" class="node">
<title>S_IDLE</title>
<ellipse fill="none" stroke="black" cx="257.89" cy="-386" rx="38.33" ry="38.33"/>
<text text-anchor="middle" x="257.89" y="-382.9" font-family="Times,serif" font-size="12.00">S_IDLE</text>
</g>
<!-- default&#45;&gt;S_IDLE -->
<g id="edge19" class="edge">
<title>default&#45;&gt;S_IDLE</title>
<path fill="none" stroke="black" d="M118.89,-386C147.03,-386 181.86,-386 209.49,-386"/>
<polygon fill="black" stroke="black" points="209.69,-389.5 219.69,-386 209.69,-382.5 209.69,-389.5"/>
<text text-anchor="middle" x="169.23" y="-389.4" font-family="Times,serif" font-size="12.00">default</text>
</g>
<!-- S_ABORT_RVALID -->
<g id="node2" class="node">
<title>S_ABORT_RVALID</title>
<ellipse fill="none" stroke="black" cx="1105.75" cy="-230" rx="79.32" ry="79.32"/>
<text text-anchor="middle" x="1105.75" y="-226.9" font-family="Times,serif" font-size="12.00">S_ABORT_RVALID</text>
</g>
<!-- S_ABORT_RVALID&#45;&gt;S_ABORT_RVALID -->
<g id="edge18" class="edge">
<title>S_ABORT_RVALID&#45;&gt;S_ABORT_RVALID</title>
<path fill="none" stroke="black" d="M1078.17,-304.47C1076.61,-334.34 1085.8,-359.41 1105.75,-359.41 1123.36,-359.41 1132.59,-339.87 1133.43,-314.74"/>
<polygon fill="black" stroke="black" points="1136.93,-314.44 1133.33,-304.47 1129.93,-314.51 1136.93,-314.44"/>
<text text-anchor="middle" x="1105.75" y="-362.81" font-family="Times,serif" font-size="12.00">data_gnt_i</text>
</g>
<!-- S_ABORT_RVALID&#45;&gt;S_IDLE -->
<g id="edge17" class="edge">
<title>S_ABORT_RVALID&#45;&gt;S_IDLE</title>
<path fill="none" stroke="black" d="M1038.68,-186.69C913.07,-110.2 633.09,32.07 417.06,-64 310.99,-111.17 275.53,-260.34 264.09,-337.98"/>
<polygon fill="black" stroke="black" points="260.61,-337.6 262.69,-347.99 267.54,-338.57 260.61,-337.6"/>
<text text-anchor="middle" x="671.06" y="-50.4" font-family="Times,serif" font-size="12.00">data_gnt_i</text>
</g>
<!-- S_WAIT_GNT -->
<g id="node4" class="node">
<title>S_WAIT_GNT</title>
<ellipse fill="none" stroke="black" cx="509.06" cy="-150" rx="60.89" ry="60.89"/>
<text text-anchor="middle" x="509.06" y="-146.9" font-family="Times,serif" font-size="12.00">S_WAIT_GNT</text>
</g>
<!-- S_ABORT_RVALID&#45;&gt;S_WAIT_GNT -->
<g id="edge16" class="edge">
<title>S_ABORT_RVALID&#45;&gt;S_WAIT_GNT</title>
<path fill="none" stroke="black" d="M1026.75,-219.51C909.94,-203.79 691.38,-174.39 579.67,-159.36"/>
<polygon fill="black" stroke="black" points="579.91,-155.86 569.53,-158 578.97,-162.8 579.91,-155.86"/>
<text text-anchor="middle" x="813.7" y="-229.4" font-family="Times,serif" font-size="12.00">data_rvalid_i,</text>
<text text-anchor="middle" x="813.7" y="-216.4" font-family="Times,serif" font-size="12.00">stall_i_EXEC,</text>
<text text-anchor="middle" x="813.7" y="-203.4" font-family="Times,serif" font-size="12.00">data_gnt_i</text>
</g>
<!-- S_WAIT_RVALID -->
<g id="node5" class="node">
<title>S_WAIT_RVALID</title>
<ellipse fill="none" stroke="black" cx="813.7" cy="-368" rx="72.78" ry="72.78"/>
<text text-anchor="middle" x="813.7" y="-364.9" font-family="Times,serif" font-size="12.00">S_WAIT_RVALID</text>
</g>
<!-- S_ABORT_RVALID&#45;&gt;S_WAIT_RVALID -->
<g id="edge15" class="edge">
<title>S_ABORT_RVALID&#45;&gt;S_WAIT_RVALID</title>
<path fill="none" stroke="black" d="M1040.23,-275.32C1026.41,-284.09 1011.65,-292.79 997.34,-300 964.2,-316.71 925.94,-331.58 893.02,-343.12"/>
<polygon fill="black" stroke="black" points="891.74,-339.86 883.44,-346.44 894.03,-346.48 891.74,-339.86"/>
<text text-anchor="middle" x="956.34" y="-375.4" font-family="Times,serif" font-size="12.00">data_rvalid_i,</text>
<text text-anchor="middle" x="956.34" y="-362.4" font-family="Times,serif" font-size="12.00">stall_i_EXEC,</text>
<text text-anchor="middle" x="956.34" y="-349.4" font-family="Times,serif" font-size="12.00">pc_i_valid,</text>
<text text-anchor="middle" x="956.34" y="-336.4" font-family="Times,serif" font-size="12.00">data_gnt_i</text>
</g>
<!-- S_IDLE&#45;&gt;S_IDLE -->
<g id="edge3" class="edge">
<title>S_IDLE&#45;&gt;S_IDLE</title>
<path fill="none" stroke="black" d="M243.34,-421.31C238.26,-447.63 243.11,-474.17 257.89,-474.17 270.77,-474.17 276.11,-454.03 273.91,-431.44"/>
<polygon fill="black" stroke="black" points="277.34,-430.7 272.44,-421.31 270.42,-431.71 277.34,-430.7"/>
<text text-anchor="middle" x="257.89" y="-477.57" font-family="Times,serif" font-size="12.00">data_gnt_i</text>
</g>
<!-- S_IDLE&#45;&gt;S_WAIT_GNT -->
<g id="edge2" class="edge">
<title>S_IDLE&#45;&gt;S_WAIT_GNT</title>
<path fill="none" stroke="black" d="M264.58,-348.36C272.15,-310.68 289.03,-253.34 325.06,-218 355.71,-187.94 400.84,-170.97 438.61,-161.51"/>
<polygon fill="black" stroke="black" points="439.63,-164.87 448.55,-159.15 438.01,-158.06 439.63,-164.87"/>
<text text-anchor="middle" x="356.56" y="-221.4" font-family="Times,serif" font-size="12.00">data_gnt_i</text>
</g>
<!-- S_IDLE&#45;&gt;S_WAIT_RVALID -->
<g id="edge1" class="edge">
<title>S_IDLE&#45;&gt;S_WAIT_RVALID</title>
<path fill="none" stroke="black" d="M296.26,-387.07C373.84,-388.96 558.03,-391.76 712.06,-381 718.35,-380.56 724.84,-379.99 731.36,-379.33"/>
<polygon fill="black" stroke="black" points="732.03,-382.78 741.6,-378.24 731.29,-375.82 732.03,-382.78"/>
<text text-anchor="middle" x="509.06" y="-404.4" font-family="Times,serif" font-size="12.00">new_request_from_PC_accept,</text>
<text text-anchor="middle" x="509.06" y="-391.4" font-family="Times,serif" font-size="12.00">data_gnt_i</text>
</g>
<!-- S_WAIT_GNT&#45;&gt;S_IDLE -->
<g id="edge7" class="edge">
<title>S_WAIT_GNT&#45;&gt;S_IDLE</title>
<path fill="none" stroke="black" d="M463.98,-191.75C415.47,-237.7 338.47,-310.63 293.91,-352.84"/>
<polygon fill="black" stroke="black" points="291.36,-350.42 286.51,-359.84 296.18,-355.51 291.36,-350.42"/>
<text text-anchor="middle" x="356.56" y="-325.4" font-family="Times,serif" font-size="12.00">data_gnt_i</text>
</g>
<!-- S_WAIT_GNT&#45;&gt;S_WAIT_GNT -->
<g id="edge5" class="edge">
<title>S_WAIT_GNT&#45;&gt;S_WAIT_GNT</title>
<path fill="none" stroke="black" d="M495.09,-209.35C493.57,-236.89 498.22,-260.94 509.06,-260.94 518.54,-260.94 523.29,-242.52 523.31,-219.47"/>
<polygon fill="black" stroke="black" points="526.81,-219.25 523.03,-209.35 519.81,-219.45 526.81,-219.25"/>
<text text-anchor="middle" x="509.06" y="-277.34" font-family="Times,serif" font-size="12.00">abort_rvalid,</text>
<text text-anchor="middle" x="509.06" y="-264.34" font-family="Times,serif" font-size="12.00">data_gnt_i</text>
</g>
<!-- S_WAIT_GNT&#45;&gt;S_WAIT_GNT -->
<g id="edge6" class="edge">
<title>S_WAIT_GNT&#45;&gt;S_WAIT_GNT</title>
<path fill="none" stroke="black" d="M485.54,-206.5C474.28,-257.01 482.12,-310.94 509.06,-310.94 534.21,-310.94 542.72,-263.94 534.57,-216.59"/>
<polygon fill="black" stroke="black" points="537.95,-215.63 532.58,-206.5 531.08,-216.99 537.95,-215.63"/>
<text text-anchor="middle" x="509.06" y="-314.34" font-family="Times,serif" font-size="12.00">data_gnt_i</text>
</g>
<!-- S_WAIT_GNT&#45;&gt;S_WAIT_RVALID -->
<g id="edge4" class="edge">
<title>S_WAIT_GNT&#45;&gt;S_WAIT_RVALID</title>
<path fill="none" stroke="black" d="M544.85,-199.52C566.76,-227.96 597.08,-262.73 630.06,-287 661.6,-310.21 700.83,-328.7 734.85,-342.12"/>
<polygon fill="black" stroke="black" points="733.7,-345.43 744.29,-345.77 736.23,-338.9 733.7,-345.43"/>
<text text-anchor="middle" x="671.06" y="-361.4" font-family="Times,serif" font-size="12.00">abort_rvalid,</text>
<text text-anchor="middle" x="671.06" y="-348.4" font-family="Times,serif" font-size="12.00">stall_i_EXEC,</text>
<text text-anchor="middle" x="671.06" y="-335.4" font-family="Times,serif" font-size="12.00">data_gnt_i</text>
</g>
<!-- S_WAIT_RVALID&#45;&gt;S_ABORT_RVALID -->
<g id="edge14" class="edge">
<title>S_WAIT_RVALID&#45;&gt;S_ABORT_RVALID</title>
<path fill="none" stroke="black" d="M864.42,-315.77C879.66,-302.16 897.22,-288.63 915.34,-279 946.6,-262.38 983.79,-251.17 1016.92,-243.73"/>
<polygon fill="black" stroke="black" points="1018.02,-247.07 1027.05,-241.53 1016.54,-240.23 1018.02,-247.07"/>
<text text-anchor="middle" x="956.34" y="-282.4" font-family="Times,serif" font-size="12.00">data_rvalid_i</text>
</g>
<!-- S_WAIT_RVALID&#45;&gt;S_IDLE -->
<g id="edge10" class="edge">
<title>S_WAIT_RVALID&#45;&gt;S_IDLE</title>
<path fill="none" stroke="black" d="M743.42,-387.35C732.92,-390.26 722.2,-393.22 712.06,-396 662.78,-409.52 651.72,-419.27 601.06,-426 519.99,-436.76 498.21,-436.1 417.06,-426 378.38,-421.19 335.59,-409.99 304.27,-400.66"/>
<polygon fill="black" stroke="black" points="305.12,-397.26 294.53,-397.71 303.09,-403.96 305.12,-397.26"/>
<text text-anchor="middle" x="509.06" y="-449.4" font-family="Times,serif" font-size="12.00">abort_rvalid,</text>
<text text-anchor="middle" x="509.06" y="-436.4" font-family="Times,serif" font-size="12.00">data_gnt_i</text>
</g>
<!-- S_WAIT_RVALID&#45;&gt;S_IDLE -->
<g id="edge11" class="edge">
<title>S_WAIT_RVALID&#45;&gt;S_IDLE</title>
<path fill="none" stroke="black" d="M752.15,-407.25C711.31,-431.2 655.19,-459.37 601.06,-471 521.11,-488.18 496.81,-489.09 417.06,-471 372.86,-460.97 364.83,-448.75 325.06,-427 316.52,-422.33 307.56,-417.05 299.07,-411.86"/>
<polygon fill="black" stroke="black" points="300.8,-408.81 290.45,-406.52 297.11,-414.76 300.8,-408.81"/>
<text text-anchor="middle" x="509.06" y="-487.4" font-family="Times,serif" font-size="12.00">data_gnt_i</text>
</g>
<!-- S_WAIT_RVALID&#45;&gt;S_IDLE -->
<g id="edge13" class="edge">
<title>S_WAIT_RVALID&#45;&gt;S_IDLE</title>
<path fill="none" stroke="black" d="M761.97,-419.48C746.72,-433.36 729.41,-447.65 712.06,-459 666.78,-488.62 653.96,-497.64 601.06,-509 521.11,-526.18 496.15,-529.8 417.06,-509 371.64,-497.05 361.95,-486.08 325.06,-457 312.36,-446.99 299.88,-434.51 289.25,-422.81"/>
<polygon fill="black" stroke="black" points="291.8,-420.42 282.54,-415.27 286.57,-425.07 291.8,-420.42"/>
<text text-anchor="middle" x="509.06" y="-539.4" font-family="Times,serif" font-size="12.00">data_gnt_i,</text>
<text text-anchor="middle" x="509.06" y="-526.4" font-family="Times,serif" font-size="12.00">data_rvalid_i</text>
</g>
<!-- S_WAIT_RVALID&#45;&gt;S_WAIT_GNT -->
<g id="edge9" class="edge">
<title>S_WAIT_RVALID&#45;&gt;S_WAIT_GNT</title>
<path fill="none" stroke="black" d="M779.94,-303.67C762.94,-275.65 739.88,-244.38 712.06,-223 690.44,-206.38 627.6,-184.92 577.69,-169.58"/>
<polygon fill="black" stroke="black" points="578.48,-166.17 567.89,-166.6 576.44,-172.86 578.48,-166.17"/>
<text text-anchor="middle" x="671.06" y="-265.4" font-family="Times,serif" font-size="12.00">abort_rvalid,</text>
<text text-anchor="middle" x="671.06" y="-252.4" font-family="Times,serif" font-size="12.00">data_rvalid_i,</text>
<text text-anchor="middle" x="671.06" y="-239.4" font-family="Times,serif" font-size="12.00">stall_i_EXEC,</text>
<text text-anchor="middle" x="671.06" y="-226.4" font-family="Times,serif" font-size="12.00">data_gnt_i</text>
</g>
<!-- S_WAIT_RVALID&#45;&gt;S_WAIT_RVALID -->
<g id="edge8" class="edge">
<title>S_WAIT_RVALID&#45;&gt;S_WAIT_RVALID</title>
<path fill="none" stroke="black" d="M800.45,-439.5C799.82,-467.39 804.24,-490.64 813.7,-490.64 821.98,-490.64 826.4,-472.84 826.95,-449.7"/>
<polygon fill="black" stroke="black" points="830.45,-449.5 826.95,-439.5 823.45,-449.5 830.45,-449.5"/>
<text text-anchor="middle" x="813.7" y="-546.04" font-family="Times,serif" font-size="12.00">abort_rvalid,</text>
<text text-anchor="middle" x="813.7" y="-533.04" font-family="Times,serif" font-size="12.00">data_rvalid_i,</text>
<text text-anchor="middle" x="813.7" y="-520.04" font-family="Times,serif" font-size="12.00">stall_i_EXEC,</text>
<text text-anchor="middle" x="813.7" y="-507.04" font-family="Times,serif" font-size="12.00">pc_i_valid,</text>
<text text-anchor="middle" x="813.7" y="-494.04" font-family="Times,serif" font-size="12.00">data_gnt_i</text>
</g>
<!-- S_WAIT_RVALID&#45;&gt;S_WAIT_RVALID -->
<g id="edge12" class="edge">
<title>S_WAIT_RVALID&#45;&gt;S_WAIT_RVALID</title>
<path fill="none" stroke="black" d="M790.82,-437.02C781.67,-494.15 789.29,-555.64 813.7,-555.64 836.68,-555.64 844.78,-501.14 838.02,-447.09"/>
<polygon fill="black" stroke="black" points="841.46,-446.43 836.58,-437.02 834.53,-447.41 841.46,-446.43"/>
<text text-anchor="middle" x="813.7" y="-559.04" font-family="Times,serif" font-size="12.00">data_gnt_i</text>
</g>
</g>
</svg>
