<?xml version="1.0" encoding="UTF-8" standalone="no"?>
<!DOCTYPE svg PUBLIC "-//W3C//DTD SVG 1.1//EN"
 "http://www.w3.org/Graphics/SVG/1.1/DTD/svg11.dtd">
<!-- Generated by graphviz version 2.43.0 (0)
 -->
<!-- Title: FSM Pages: 1 -->
<svg width="1159pt" height="528pt"
 viewBox="0.00 0.00 1159.05 528.00" xmlns="http://www.w3.org/2000/svg" xmlns:xlink="http://www.w3.org/1999/xlink">
<g id="graph0" class="graph" transform="scale(1 1) rotate(0) translate(4 524)">
<title>FSM</title>
<polygon fill="white" stroke="transparent" points="-4,4 -4,-524 1155.05,-524 1155.05,4 -4,4"/>
<text text-anchor="middle" x="575.52" y="-504.8" font-family="Times,serif" font-size="14.00">ins_mem</text>
<g id="clust1" class="cluster">
<title>cluster_1</title>
<polygon fill="none" stroke="gray" stroke-dasharray="5,2" points="8,-8 8,-489 1143.05,-489 1143.05,-8 8,-8"/>
<text text-anchor="middle" x="575.52" y="-15.4" font-family="Times,serif" font-size="12.00">current_state</text>
</g>
<!-- default -->
<g id="node1" class="node">
<title>default</title>
<path fill="none" stroke="black" d="M56.04,-232.02C56.04,-232.02 27.46,-221.98 27.46,-221.98 21.8,-219.99 21.8,-216.01 27.46,-214.02 27.46,-214.02 56.04,-203.98 56.04,-203.98 61.7,-201.99 73.02,-201.99 78.69,-203.98 78.69,-203.98 107.27,-214.02 107.27,-214.02 112.93,-216.01 112.93,-219.99 107.27,-221.98 107.27,-221.98 78.69,-232.02 78.69,-232.02 73.02,-234.01 61.7,-234.01 56.04,-232.02"/>
<text text-anchor="middle" x="67.36" y="-214.9" font-family="Times,serif" font-size="12.00">default</text>
</g>
<!-- S_IDLE -->
<g id="node3" class="node">
<title>S_IDLE</title>
<ellipse fill="none" stroke="black" cx="257.89" cy="-218" rx="38.33" ry="38.33"/>
<text text-anchor="middle" x="257.89" y="-214.9" font-family="Times,serif" font-size="12.00">S_IDLE</text>
</g>
<!-- default&#45;&gt;S_IDLE -->
<g id="edge16" class="edge">
<title>default&#45;&gt;S_IDLE</title>
<path fill="none" stroke="black" d="M118.89,-218C147.03,-218 181.86,-218 209.49,-218"/>
<polygon fill="black" stroke="black" points="209.69,-221.5 219.69,-218 209.69,-214.5 209.69,-221.5"/>
<text text-anchor="middle" x="169.23" y="-221.4" font-family="Times,serif" font-size="12.00">default</text>
</g>
<!-- S_ABORT_RVALID -->
<g id="node2" class="node">
<title>S_ABORT_RVALID</title>
<ellipse fill="none" stroke="black" cx="1055.64" cy="-189" rx="79.32" ry="79.32"/>
<text text-anchor="middle" x="1055.64" y="-185.9" font-family="Times,serif" font-size="12.00">S_ABORT_RVALID</text>
</g>
<!-- S_ABORT_RVALID&#45;&gt;S_ABORT_RVALID -->
<g id="edge15" class="edge">
<title>S_ABORT_RVALID&#45;&gt;S_ABORT_RVALID</title>
<path fill="none" stroke="black" d="M1028.06,-263.47C1026.5,-293.34 1035.69,-318.41 1055.64,-318.41 1073.24,-318.41 1082.47,-298.87 1083.32,-273.74"/>
<polygon fill="black" stroke="black" points="1086.82,-273.44 1083.22,-263.47 1079.82,-273.51 1086.82,-273.44"/>
<text text-anchor="middle" x="1055.64" y="-321.81" font-family="Times,serif" font-size="12.00">data_gnt_i</text>
</g>
<!-- S_ABORT_RVALID&#45;&gt;S_IDLE -->
<g id="edge14" class="edge">
<title>S_ABORT_RVALID&#45;&gt;S_IDLE</title>
<path fill="none" stroke="black" d="M984.15,-154.23C867.68,-101.4 628.17,-12.23 429.06,-64 377.84,-77.32 364.21,-86.39 325.06,-122 308.2,-137.33 293.37,-157.74 282.05,-175.8"/>
<polygon fill="black" stroke="black" points="279,-174.09 276.78,-184.45 284.98,-177.73 279,-174.09"/>
<text text-anchor="middle" x="620.95" y="-58.4" font-family="Times,serif" font-size="12.00">data_gnt_i</text>
</g>
<!-- S_WAIT_GNT -->
<g id="node4" class="node">
<title>S_WAIT_GNT</title>
<ellipse fill="none" stroke="black" cx="490" cy="-150" rx="60.89" ry="60.89"/>
<text text-anchor="middle" x="490" y="-146.9" font-family="Times,serif" font-size="12.00">S_WAIT_GNT</text>
</g>
<!-- S_ABORT_RVALID&#45;&gt;S_WAIT_GNT -->
<g id="edge13" class="edge">
<title>S_ABORT_RVALID&#45;&gt;S_WAIT_GNT</title>
<path fill="none" stroke="black" d="M976.32,-183.11C966.53,-182.39 956.64,-181.67 947.22,-181 810.55,-171.27 650.79,-160.57 561.2,-154.63"/>
<polygon fill="black" stroke="black" points="561.37,-151.13 551.16,-153.96 560.91,-158.12 561.37,-151.13"/>
<text text-anchor="middle" x="763.59" y="-189.4" font-family="Times,serif" font-size="12.00">data_rvalid_i,</text>
<text text-anchor="middle" x="763.59" y="-176.4" font-family="Times,serif" font-size="12.00">data_gnt_i</text>
</g>
<!-- S_WAIT_RVALID -->
<g id="node5" class="node">
<title>S_WAIT_RVALID</title>
<ellipse fill="none" stroke="black" cx="763.59" cy="-307" rx="72.78" ry="72.78"/>
<text text-anchor="middle" x="763.59" y="-303.9" font-family="Times,serif" font-size="12.00">S_WAIT_RVALID</text>
</g>
<!-- S_ABORT_RVALID&#45;&gt;S_WAIT_RVALID -->
<g id="edge12" class="edge">
<title>S_ABORT_RVALID&#45;&gt;S_WAIT_RVALID</title>
<path fill="none" stroke="black" d="M987.58,-229.98C974.45,-237.17 960.6,-244.19 947.22,-250 914.36,-264.26 876.78,-276.62 844.28,-286.15"/>
<polygon fill="black" stroke="black" points="843,-282.88 834.37,-289.02 844.95,-289.61 843,-282.88"/>
<text text-anchor="middle" x="906.22" y="-307.4" font-family="Times,serif" font-size="12.00">data_rvalid_i,</text>
<text text-anchor="middle" x="906.22" y="-294.4" font-family="Times,serif" font-size="12.00">pc_i_valid,</text>
<text text-anchor="middle" x="906.22" y="-281.4" font-family="Times,serif" font-size="12.00">data_gnt_i</text>
</g>
<!-- S_IDLE&#45;&gt;S_IDLE -->
<g id="edge3" class="edge">
<title>S_IDLE&#45;&gt;S_IDLE</title>
<path fill="none" stroke="black" d="M243.34,-253.31C238.26,-279.63 243.11,-306.17 257.89,-306.17 270.77,-306.17 276.11,-286.03 273.91,-263.44"/>
<polygon fill="black" stroke="black" points="277.34,-262.7 272.44,-253.31 270.42,-263.71 277.34,-262.7"/>
<text text-anchor="middle" x="257.89" y="-309.57" font-family="Times,serif" font-size="12.00">data_gnt_i</text>
</g>
<!-- S_IDLE&#45;&gt;S_WAIT_GNT -->
<g id="edge2" class="edge">
<title>S_IDLE&#45;&gt;S_WAIT_GNT</title>
<path fill="none" stroke="black" d="M279.38,-186C290.82,-171.17 306.52,-155.07 325.06,-147 354.49,-134.2 389.8,-133.25 420.1,-136.21"/>
<polygon fill="black" stroke="black" points="419.84,-139.7 430.17,-137.35 420.63,-132.74 419.84,-139.7"/>
<text text-anchor="middle" x="362.56" y="-150.4" font-family="Times,serif" font-size="12.00">data_gnt_i</text>
</g>
<!-- S_IDLE&#45;&gt;S_WAIT_RVALID -->
<g id="edge1" class="edge">
<title>S_IDLE&#45;&gt;S_WAIT_RVALID</title>
<path fill="none" stroke="black" d="M293.19,-232.92C350.99,-257.17 472.09,-304.12 579.95,-321 615.95,-326.63 625.59,-323.52 661.95,-321 668.3,-320.56 674.86,-319.97 681.45,-319.27"/>
<polygon fill="black" stroke="black" points="682.24,-322.7 691.79,-318.1 681.46,-315.75 682.24,-322.7"/>
<text text-anchor="middle" x="490" y="-331.4" font-family="Times,serif" font-size="12.00">accept_PC_req,</text>
<text text-anchor="middle" x="490" y="-318.4" font-family="Times,serif" font-size="12.00">data_gnt_i</text>
</g>
<!-- S_WAIT_GNT&#45;&gt;S_IDLE -->
<g id="edge4" class="edge">
<title>S_WAIT_GNT&#45;&gt;S_IDLE</title>
<path fill="none" stroke="black" d="M431.25,-167.07C392.01,-178.66 340.81,-193.79 304.44,-204.54"/>
<polygon fill="black" stroke="black" points="303.19,-201.26 294.6,-207.45 305.18,-207.97 303.19,-201.26"/>
<text text-anchor="middle" x="362.56" y="-200.4" font-family="Times,serif" font-size="12.00">abort_rvalid</text>
</g>
<!-- S_WAIT_GNT&#45;&gt;S_WAIT_GNT -->
<g id="edge6" class="edge">
<title>S_WAIT_GNT&#45;&gt;S_WAIT_GNT</title>
<path fill="none" stroke="black" d="M467.14,-206.51C463.8,-235.21 471.42,-260.94 490,-260.94 506.33,-260.94 514.2,-241.07 513.6,-216.77"/>
<polygon fill="black" stroke="black" points="517.07,-216.24 512.87,-206.51 510.09,-216.74 517.07,-216.24"/>
<text text-anchor="middle" x="490" y="-264.34" font-family="Times,serif" font-size="12.00">data_gnt_i</text>
</g>
<!-- S_WAIT_GNT&#45;&gt;S_WAIT_RVALID -->
<g id="edge5" class="edge">
<title>S_WAIT_GNT&#45;&gt;S_WAIT_RVALID</title>
<path fill="none" stroke="black" d="M549.43,-165.21C583.74,-175.64 627.07,-191.51 661.95,-213 677.4,-222.52 692.55,-234.67 706.2,-247.04"/>
<polygon fill="black" stroke="black" points="703.91,-249.69 713.62,-253.92 708.67,-244.56 703.91,-249.69"/>
<text text-anchor="middle" x="620.95" y="-229.4" font-family="Times,serif" font-size="12.00">abort_rvalid,</text>
<text text-anchor="middle" x="620.95" y="-216.4" font-family="Times,serif" font-size="12.00">data_gnt_i</text>
</g>
<!-- S_WAIT_RVALID&#45;&gt;S_ABORT_RVALID -->
<g id="edge10" class="edge">
<title>S_WAIT_RVALID&#45;&gt;S_ABORT_RVALID</title>
<path fill="none" stroke="black" d="M812.44,-253.18C827.89,-238.92 846.03,-225 865.22,-216 896.3,-201.43 933.14,-194.23 966.03,-190.81"/>
<polygon fill="black" stroke="black" points="966.47,-194.29 976.1,-189.87 965.82,-187.32 966.47,-194.29"/>
<text text-anchor="middle" x="906.22" y="-232.4" font-family="Times,serif" font-size="12.00">data_gnt_i,</text>
<text text-anchor="middle" x="906.22" y="-219.4" font-family="Times,serif" font-size="12.00">abort_rvalid</text>
</g>
<!-- S_WAIT_RVALID&#45;&gt;S_IDLE -->
<g id="edge9" class="edge">
<title>S_WAIT_RVALID&#45;&gt;S_IDLE</title>
<path fill="none" stroke="black" d="M695.97,-333.82C627.37,-357.41 518.2,-383.62 429.06,-353 373.09,-333.78 321.8,-287.4 290.48,-254.37"/>
<polygon fill="black" stroke="black" points="292.72,-251.64 283.34,-246.71 287.6,-256.41 292.72,-251.64"/>
<text text-anchor="middle" x="490" y="-369.4" font-family="Times,serif" font-size="12.00">data_gnt_i</text>
</g>
<!-- S_WAIT_RVALID&#45;&gt;S_WAIT_GNT -->
<g id="edge8" class="edge">
<title>S_WAIT_RVALID&#45;&gt;S_WAIT_GNT</title>
<path fill="none" stroke="black" d="M692.09,-292.81C656.54,-283.5 613.88,-268.9 579.95,-247 563.03,-236.08 547.21,-221.18 533.75,-206.34"/>
<polygon fill="black" stroke="black" points="536.17,-203.79 526.93,-198.6 530.92,-208.42 536.17,-203.79"/>
<text text-anchor="middle" x="620.95" y="-299.4" font-family="Times,serif" font-size="12.00">data_rvalid_i,</text>
<text text-anchor="middle" x="620.95" y="-286.4" font-family="Times,serif" font-size="12.00">data_gnt_i</text>
</g>
<!-- S_WAIT_RVALID&#45;&gt;S_WAIT_RVALID -->
<g id="edge7" class="edge">
<title>S_WAIT_RVALID&#45;&gt;S_WAIT_RVALID</title>
<path fill="none" stroke="black" d="M750.33,-378.5C749.7,-406.39 754.12,-429.64 763.59,-429.64 771.87,-429.64 776.28,-411.84 776.84,-388.7"/>
<polygon fill="black" stroke="black" points="780.34,-388.5 776.84,-378.5 773.34,-388.5 780.34,-388.5"/>
<text text-anchor="middle" x="763.59" y="-472.04" font-family="Times,serif" font-size="12.00">data_rvalid_i,</text>
<text text-anchor="middle" x="763.59" y="-459.04" font-family="Times,serif" font-size="12.00">accept_PC_req,</text>
<text text-anchor="middle" x="763.59" y="-446.04" font-family="Times,serif" font-size="12.00">STALL_DECODE,</text>
<text text-anchor="middle" x="763.59" y="-433.04" font-family="Times,serif" font-size="12.00">data_gnt_i</text>
</g>
<!-- S_WAIT_RVALID&#45;&gt;S_WAIT_RVALID -->
<g id="edge11" class="edge">
<title>S_WAIT_RVALID&#45;&gt;S_WAIT_RVALID</title>
<path fill="none" stroke="black" d="M740.18,-376.19C731.86,-428.47 739.66,-481.64 763.59,-481.64 785.96,-481.64 794.24,-435.11 788.4,-386.29"/>
<polygon fill="black" stroke="black" points="791.84,-385.61 786.99,-376.19 784.91,-386.57 791.84,-385.61"/>
<text text-anchor="middle" x="763.59" y="-485.04" font-family="Times,serif" font-size="12.00">abort_rvalid</text>
</g>
</g>
</svg>
