<?xml version="1.0" encoding="UTF-8" standalone="no"?>
<!DOCTYPE svg PUBLIC "-//W3C//DTD SVG 1.1//EN"
 "http://www.w3.org/Graphics/SVG/1.1/DTD/svg11.dtd">
<!-- Generated by graphviz version 2.43.0 (0)
 -->
<!-- Title: FSM Pages: 1 -->
<svg width="1464pt" height="551pt"
 viewBox="0.00 0.00 1464.08 551.00" xmlns="http://www.w3.org/2000/svg" xmlns:xlink="http://www.w3.org/1999/xlink">
<g id="graph0" class="graph" transform="scale(1 1) rotate(0) translate(4 547)">
<title>FSM</title>
<polygon fill="white" stroke="transparent" points="-4,4 -4,-547 1460.08,-547 1460.08,4 -4,4"/>
<text text-anchor="middle" x="728.04" y="-527.8" font-family="Times,serif" font-size="14.00">main</text>
<g id="clust1" class="cluster">
<title>cluster_1</title>
<polygon fill="none" stroke="gray" stroke-dasharray="5,2" points="8,-8 8,-512 1448.08,-512 1448.08,-8 8,-8"/>
<text text-anchor="middle" x="728.04" y="-15.4" font-family="Times,serif" font-size="12.00">state</text>
</g>
<!-- default -->
<g id="node1" class="node">
<title>default</title>
<path fill="none" stroke="black" d="M56.04,-129.02C56.04,-129.02 27.46,-118.98 27.46,-118.98 21.8,-116.99 21.8,-113.01 27.46,-111.02 27.46,-111.02 56.04,-100.98 56.04,-100.98 61.7,-98.99 73.02,-98.99 78.69,-100.98 78.69,-100.98 107.27,-111.02 107.27,-111.02 112.93,-113.01 112.93,-116.99 107.27,-118.98 107.27,-118.98 78.69,-129.02 78.69,-129.02 73.02,-131.01 61.7,-131.01 56.04,-129.02"/>
<text text-anchor="middle" x="67.36" y="-111.9" font-family="Times,serif" font-size="12.00">default</text>
</g>
<!-- IDLE -->
<g id="node4" class="node">
<title>IDLE</title>
<ellipse fill="none" stroke="black" cx="249.28" cy="-115" rx="29.6" ry="29.6"/>
<text text-anchor="middle" x="249.28" y="-111.9" font-family="Times,serif" font-size="12.00">IDLE</text>
</g>
<!-- default&#45;&gt;IDLE -->
<g id="edge11" class="edge">
<title>default&#45;&gt;IDLE</title>
<path fill="none" stroke="black" d="M118.96,-115C147.68,-115 183.06,-115 209.55,-115"/>
<polygon fill="black" stroke="black" points="209.6,-118.5 219.6,-115 209.6,-111.5 209.6,-118.5"/>
<text text-anchor="middle" x="169.23" y="-118.4" font-family="Times,serif" font-size="12.00">default</text>
</g>
<!-- DONE -->
<g id="node2" class="node">
<title>DONE</title>
<ellipse fill="none" stroke="black" cx="890.86" cy="-125" rx="34.45" ry="34.45"/>
<text text-anchor="middle" x="890.86" y="-121.9" font-family="Times,serif" font-size="12.00">DONE</text>
</g>
<!-- FULL_FLUSH_RESET -->
<g id="node3" class="node">
<title>FULL_FLUSH_RESET</title>
<ellipse fill="none" stroke="black" cx="1347.12" cy="-214" rx="92.91" ry="92.91"/>
<text text-anchor="middle" x="1347.12" y="-210.9" font-family="Times,serif" font-size="12.00">FULL_FLUSH_RESET</text>
</g>
<!-- DONE&#45;&gt;FULL_FLUSH_RESET -->
<g id="edge10" class="edge">
<title>DONE&#45;&gt;FULL_FLUSH_RESET</title>
<path fill="none" stroke="black" d="M924.9,-131.47C991.38,-144.5 1143.7,-174.34 1245.77,-194.34"/>
<polygon fill="black" stroke="black" points="1245.31,-197.81 1255.79,-196.3 1246.65,-190.95 1245.31,-197.81"/>
<text text-anchor="middle" x="1050.77" y="-170.4" font-family="Times,serif" font-size="12.00">reset_request</text>
</g>
<!-- FULL_FLUSH_RESET&#45;&gt;IDLE -->
<g id="edge9" class="edge">
<title>FULL_FLUSH_RESET&#45;&gt;IDLE</title>
<path fill="none" stroke="black" d="M1263.12,-173.28C1186.24,-138.09 1067.63,-90.12 958.36,-72 705.26,-30.03 395.21,-84.83 288.48,-106.71"/>
<polygon fill="black" stroke="black" points="287.59,-103.32 278.51,-108.78 289.01,-110.18 287.59,-103.32"/>
<text text-anchor="middle" x="732.19" y="-61.4" font-family="Times,serif" font-size="12.00">all_ready</text>
</g>
<!-- PROGRAM -->
<g id="node7" class="node">
<title>PROGRAM</title>
<ellipse fill="none" stroke="black" cx="475.92" cy="-203" rx="51.19" ry="51.19"/>
<text text-anchor="middle" x="475.92" y="-199.9" font-family="Times,serif" font-size="12.00">PROGRAM</text>
</g>
<!-- IDLE&#45;&gt;PROGRAM -->
<g id="edge1" class="edge">
<title>IDLE&#45;&gt;PROGRAM</title>
<path fill="none" stroke="black" d="M276.93,-125.44C311.65,-139.04 373.26,-163.18 418.56,-180.92"/>
<polygon fill="black" stroke="black" points="417.37,-184.22 427.96,-184.61 419.93,-177.7 417.37,-184.22"/>
<text text-anchor="middle" x="351.82" y="-172.4" font-family="Times,serif" font-size="12.00">start_program</text>
</g>
<!-- IRQ_HANDLE -->
<g id="node5" class="node">
<title>IRQ_HANDLE</title>
<ellipse fill="none" stroke="black" cx="1050.77" cy="-441" rx="63.31" ry="63.31"/>
<text text-anchor="middle" x="1050.77" y="-437.9" font-family="Times,serif" font-size="12.00">IRQ_HANDLE</text>
</g>
<!-- IRQ_HANDLE&#45;&gt;FULL_FLUSH_RESET -->
<g id="edge7" class="edge">
<title>IRQ_HANDLE&#45;&gt;FULL_FLUSH_RESET</title>
<path fill="none" stroke="black" d="M1105.81,-409.23C1140.91,-387.78 1187.05,-358 1225.17,-328 1241.35,-315.27 1257.9,-300.79 1273.36,-286.51"/>
<polygon fill="black" stroke="black" points="1275.92,-288.91 1280.86,-279.53 1271.15,-283.78 1275.92,-288.91"/>
<text text-anchor="middle" x="1184.17" y="-386.4" font-family="Times,serif" font-size="12.00">reset_request</text>
</g>
<!-- IRQ_HANDLE&#45;&gt;PROGRAM -->
<g id="edge8" class="edge">
<title>IRQ_HANDLE&#45;&gt;PROGRAM</title>
<path fill="none" stroke="black" d="M987.5,-447.92C909.02,-453.8 772.09,-454.42 670.01,-403 602.11,-368.79 544.65,-300.94 510.5,-253.82"/>
<polygon fill="black" stroke="black" points="513.27,-251.66 504.6,-245.56 507.57,-255.73 513.27,-251.66"/>
<text text-anchor="middle" x="732.19" y="-456.4" font-family="Times,serif" font-size="12.00">reset_request,</text>
<text text-anchor="middle" x="732.19" y="-443.4" font-family="Times,serif" font-size="12.00">irq_service_done</text>
</g>
<!-- PARTIAL_IRQ -->
<g id="node6" class="node">
<title>PARTIAL_IRQ</title>
<ellipse fill="none" stroke="black" cx="732.19" cy="-316" rx="62.35" ry="62.35"/>
<text text-anchor="middle" x="732.19" y="-312.9" font-family="Times,serif" font-size="12.00">PARTIAL_IRQ</text>
</g>
<!-- PARTIAL_IRQ&#45;&gt;FULL_FLUSH_RESET -->
<g id="edge5" class="edge">
<title>PARTIAL_IRQ&#45;&gt;FULL_FLUSH_RESET</title>
<path fill="none" stroke="black" d="M793.63,-305.94C898.83,-288.43 1116.6,-252.2 1245.08,-230.81"/>
<polygon fill="black" stroke="black" points="1246.03,-234.2 1255.32,-229.11 1244.88,-227.3 1246.03,-234.2"/>
<text text-anchor="middle" x="1050.77" y="-276.4" font-family="Times,serif" font-size="12.00">reset_request</text>
</g>
<!-- PARTIAL_IRQ&#45;&gt;IRQ_HANDLE -->
<g id="edge6" class="edge">
<title>PARTIAL_IRQ&#45;&gt;IRQ_HANDLE</title>
<path fill="none" stroke="black" d="M790.15,-338.49C844.11,-359.8 925.18,-391.81 982.34,-414.38"/>
<polygon fill="black" stroke="black" points="981.07,-417.64 991.65,-418.05 983.64,-411.13 981.07,-417.64"/>
<text text-anchor="middle" x="890.86" y="-420.4" font-family="Times,serif" font-size="12.00">reset_request,</text>
<text text-anchor="middle" x="890.86" y="-407.4" font-family="Times,serif" font-size="12.00">ready_for_irq_handler</text>
</g>
<!-- PROGRAM&#45;&gt;DONE -->
<g id="edge4" class="edge">
<title>PROGRAM&#45;&gt;DONE</title>
<path fill="none" stroke="black" d="M516.31,-171.53C528.4,-163.46 542.17,-155.73 556.01,-151 655.27,-117.04 780.48,-118.04 845.73,-121.58"/>
<polygon fill="black" stroke="black" points="845.87,-125.1 856.06,-122.19 846.28,-118.11 845.87,-125.1"/>
<text text-anchor="middle" x="598.51" y="-180.4" font-family="Times,serif" font-size="12.00">reset_request,</text>
<text text-anchor="middle" x="598.51" y="-167.4" font-family="Times,serif" font-size="12.00">initate_irq,</text>
<text text-anchor="middle" x="598.51" y="-154.4" font-family="Times,serif" font-size="12.00">end_condition</text>
</g>
<!-- PROGRAM&#45;&gt;FULL_FLUSH_RESET -->
<g id="edge2" class="edge">
<title>PROGRAM&#45;&gt;FULL_FLUSH_RESET</title>
<path fill="none" stroke="black" d="M527.09,-203.63C665.8,-205.39 1056.58,-210.34 1243.73,-212.7"/>
<polygon fill="black" stroke="black" points="1243.8,-216.21 1253.85,-212.83 1243.89,-209.21 1243.8,-216.21"/>
<text text-anchor="middle" x="890.86" y="-212.4" font-family="Times,serif" font-size="12.00">reset_request</text>
</g>
<!-- PROGRAM&#45;&gt;PARTIAL_IRQ -->
<g id="edge3" class="edge">
<title>PROGRAM&#45;&gt;PARTIAL_IRQ</title>
<path fill="none" stroke="black" d="M522.96,-223.46C562.78,-241.16 620.8,-266.95 665.49,-286.81"/>
<polygon fill="black" stroke="black" points="664.26,-290.09 674.82,-290.95 667.1,-283.69 664.26,-290.09"/>
<text text-anchor="middle" x="598.51" y="-288.4" font-family="Times,serif" font-size="12.00">reset_request,</text>
<text text-anchor="middle" x="598.51" y="-275.4" font-family="Times,serif" font-size="12.00">initate_irq</text>
</g>
</g>
</svg>
